<?xml version="1.0" encoding="utf-8"?>
<!-- Generator: Adobe Illustrator 20.1.0, SVG Export Plug-In . SVG Version: 6.00 Build 0)  -->
<!DOCTYPE svg PUBLIC "-//W3C//DTD SVG 1.1//EN" "http://www.w3.org/Graphics/SVG/1.1/DTD/svg11.dtd">
<svg version="1.1" id="_x2014_ÎÓÈ_x5F_1" xmlns="http://www.w3.org/2000/svg" xmlns:xlink="http://www.w3.org/1999/xlink"
	 x="0px" y="0px" viewBox="0 0 2012.3 1200" style="enable-background:new 0 0 2012.3 1200;" xml:space="preserve">
<style type="text/css">
	.st0{fill:#FFFFFF;}
</style>
<g>
	<g>
		<g>
			<polygon class="st0" points="919.3,1200 1093,1200 1006.1,600 			"/>
		</g>
		<g>
			<polygon class="st0" points="1277,1200 1473.9,1200 1006.1,600 			"/>
		</g>
		<g>
			<polygon class="st0" points="1712.4,1200 2010,1200 1006.1,600 			"/>
		</g>
		<g>
			<polygon class="st0" points="2012.3,1019.1 2012.3,880.6 1006.1,600 			"/>
		</g>
		<g>
			<polygon class="st0" points="1006.1,600 2012.3,760 2012.3,653.2 			"/>
		</g>
		<g>
			<polygon class="st0" points="2012.3,546.8 2012.3,440 1006.1,600 			"/>
		</g>
		<g>
			<polygon class="st0" points="2012.3,319.4 2012.3,180.9 1006.1,600 			"/>
		</g>
		<g>
			<polygon class="st0" points="2010,0 1712.4,0 1006.1,600 			"/>
		</g>
		<g>
			<polygon class="st0" points="1473.9,0 1277,0 1006.1,600 			"/>
		</g>
		<g>
			<polygon class="st0" points="1093,0 919.3,0 1006.1,600 			"/>
		</g>
		<g>
			<polygon class="st0" points="735.3,0 538.4,0 1006.1,600 			"/>
		</g>
		<g>
			<polygon class="st0" points="299.9,0 2.3,0 1006.1,600 			"/>
		</g>
		<g>
			<polygon class="st0" points="0,180.9 0,319.4 1006.1,600 			"/>
		</g>
		<g>
			<polygon class="st0" points="0,440 0,546.8 1006.1,600 			"/>
		</g>
		<g>
			<polygon class="st0" points="0,653.2 0,760 1006.1,600 			"/>
		</g>
		<g>
			<polygon class="st0" points="0,880.6 0,1019.1 1006.1,600 			"/>
		</g>
		<g>
			<polygon class="st0" points="2.3,1200 299.9,1200 1006.1,600 			"/>
		</g>
		<g>
			<polygon class="st0" points="538.4,1200 735.3,1200 1006.1,600 			"/>
		</g>
	</g>
</g>
</svg>
