<?xml version="1.0" encoding="utf-8"?>
<!-- Generator: Adobe Illustrator 20.1.0, SVG Export Plug-In . SVG Version: 6.00 Build 0)  -->
<!DOCTYPE svg PUBLIC "-//W3C//DTD SVG 1.1//EN" "http://www.w3.org/Graphics/SVG/1.1/DTD/svg11.dtd">
<svg version="1.1" id="Layer_1" xmlns="http://www.w3.org/2000/svg" xmlns:xlink="http://www.w3.org/1999/xlink" x="0px" y="0px"
	 viewBox="0 0 36.2 25.4" style="enable-background:new 0 0 36.2 25.4;" xml:space="preserve">
<style type="text/css">
	.st0{fill:#CE2030;}
</style>
<g>
	<path class="st0" d="M13.2,10.7c2.2,1.5,3.3,3.5,3.3,6.1c0,2.6-0.8,4.7-2.4,6.2c-1.6,1.5-3.5,2.3-5.9,2.3c-2.4,0-4.3-0.7-5.9-2.2
		C0.8,21.7,0,19.8,0,17.5c0-2.3,0.7-4.6,2.2-6.9L9.5,0h8.2L13.2,10.7z M31.7,10.7c2.2,1.5,3.3,3.5,3.3,6.1c0,2.6-0.8,4.7-2.4,6.2
		c-1.6,1.5-3.5,2.3-5.9,2.3c-2.4,0-4.3-0.7-5.9-2.2c-1.6-1.5-2.4-3.4-2.4-5.7c0-2.3,0.7-4.6,2.2-6.9L28,0h8.2L31.7,10.7z"/>
</g>
</svg>
